# xmcd
# 
# Track frame offsets:
#   150
#   13837
#   30442
#   45197
#   59270
#   75935
#   94462
#   110705
#   128967
#   147070
#   163475
#   180565
#   193817
#   210317
#   228350
# 
# Disc length: 3314 seconds
# 
# Revision: 0
# Processed by: cddbd v1.5.1PL2 Copyright (c) Steve Scherf et al.
# Submitted via: Synapstar 1.0 
# 
DISCID=c50cf00f
DTITLE=Various Artist - mm music maestro
DYEAR=1900
DGENRE=Country
TTITLE0=reba - i'm a survivor
TTITLE1=kenny chesney - the tin man
TTITLE2=gary allan - man of me
TTITLE3=terri clark - getting there
TTITLE4=clay walker - if you ever feel like loving me again
TTITLE5=marshall dyllon - she ain't gonna cry
TTITLE6=steve holy - good morning beautiful
TTITLE7=tim rushlow - crazy life
TTITLE8=br549 - too lazy to work to nervous to steal
TTITLE9=lori morgan and sammy kershaw - i finally found someone
TTITLE10=joe diffe - in another world
TTITLE11=george jones - the man he was
TTITLE12=mary c. carpenter - this is me leaving you
TTITLE13=aaron tippin - always was
TTITLE14=trace atkins - i'm cryin'
EXTD=MediaType: Karaoke CD+G Producer: Music Maestro
EXTT0=
EXTT1=
EXTT2=
EXTT3=
EXTT4=
EXTT5=
EXTT6=
EXTT7=
EXTT8=
EXTT9=
EXTT10=
EXTT11=
EXTT12=
EXTT13=
EXTT14=
PLAYORDER=
